<mxfile host="app.diagrams.net" modified="2023-02-03T23:22:03.004Z" agent="5.0 (Windows NT 10.0; Win64; x64) AppleWebKit/537.36 (KHTML, like Gecko) Chrome/107.0.0.0 Safari/537.36 OPR/93.0.0.0" etag="xWixspmMHsNSXOO1gjis" version="20.8.16" type="github">
  <diagram id="C5RBs43oDa-KdzZeNtuy" name="Page-1">
    <mxGraphModel dx="961" dy="554" grid="1" gridSize="10" guides="1" tooltips="1" connect="1" arrows="1" fold="1" page="1" pageScale="1" pageWidth="3300" pageHeight="4681" math="0" shadow="0">
      <root>
        <mxCell id="WIyWlLk6GJQsqaUBKTNV-0" />
        <mxCell id="WIyWlLk6GJQsqaUBKTNV-1" parent="WIyWlLk6GJQsqaUBKTNV-0" />
        <mxCell id="SJo5ltNFuGh-xrkQavzZ-158" value="" style="group" vertex="1" connectable="0" parent="WIyWlLk6GJQsqaUBKTNV-1">
          <mxGeometry x="40" y="40" width="690" height="360" as="geometry" />
        </mxCell>
        <mxCell id="SJo5ltNFuGh-xrkQavzZ-93" value="New Game" style="rounded=1;whiteSpace=wrap;html=1;fontSize=12;glass=0;strokeWidth=1;shadow=0;movable=1;resizable=1;rotatable=1;deletable=1;editable=1;connectable=1;" vertex="1" parent="SJo5ltNFuGh-xrkQavzZ-158">
          <mxGeometry x="200" y="40" width="120" height="40" as="geometry" />
        </mxCell>
        <mxCell id="SJo5ltNFuGh-xrkQavzZ-94" value="Load Game" style="rounded=1;whiteSpace=wrap;html=1;fontSize=12;glass=0;strokeWidth=1;shadow=0;movable=1;resizable=1;rotatable=1;deletable=1;editable=1;connectable=1;" vertex="1" parent="SJo5ltNFuGh-xrkQavzZ-158">
          <mxGeometry x="360" y="40" width="120" height="40" as="geometry" />
        </mxCell>
        <mxCell id="SJo5ltNFuGh-xrkQavzZ-95" value="Settings" style="rounded=1;whiteSpace=wrap;html=1;fontSize=12;glass=0;strokeWidth=1;shadow=0;movable=1;resizable=1;rotatable=1;deletable=1;editable=1;connectable=1;" vertex="1" parent="SJo5ltNFuGh-xrkQavzZ-158">
          <mxGeometry x="520" y="40" width="120" height="40" as="geometry" />
        </mxCell>
        <mxCell id="SJo5ltNFuGh-xrkQavzZ-96" value="Criar personagem" style="rounded=1;whiteSpace=wrap;html=1;fontSize=12;glass=0;strokeWidth=1;shadow=0;movable=1;resizable=1;rotatable=1;deletable=1;editable=1;connectable=1;" vertex="1" parent="SJo5ltNFuGh-xrkQavzZ-158">
          <mxGeometry x="200" y="120" width="120" height="80" as="geometry" />
        </mxCell>
        <mxCell id="SJo5ltNFuGh-xrkQavzZ-108" style="edgeStyle=orthogonalEdgeStyle;rounded=0;orthogonalLoop=1;jettySize=auto;html=1;entryX=0.5;entryY=0;entryDx=0;entryDy=0;movable=1;resizable=1;rotatable=1;deletable=1;editable=1;connectable=1;" edge="1" parent="SJo5ltNFuGh-xrkQavzZ-158" source="SJo5ltNFuGh-xrkQavzZ-93" target="SJo5ltNFuGh-xrkQavzZ-96">
          <mxGeometry relative="1" as="geometry" />
        </mxCell>
        <mxCell id="SJo5ltNFuGh-xrkQavzZ-98" value="Pular intro?" style="rhombus;fillStyle=solid;fillColor=#2a2828;gradientColor=none;movable=1;resizable=1;rotatable=1;deletable=1;editable=1;connectable=1;" vertex="1" parent="SJo5ltNFuGh-xrkQavzZ-158">
          <mxGeometry x="220" y="240" width="80" height="80" as="geometry" />
        </mxCell>
        <mxCell id="SJo5ltNFuGh-xrkQavzZ-113" style="edgeStyle=orthogonalEdgeStyle;rounded=0;orthogonalLoop=1;jettySize=auto;html=1;entryX=0.5;entryY=0;entryDx=0;entryDy=0;movable=1;resizable=1;rotatable=1;deletable=1;editable=1;connectable=1;" edge="1" parent="SJo5ltNFuGh-xrkQavzZ-158" source="SJo5ltNFuGh-xrkQavzZ-96" target="SJo5ltNFuGh-xrkQavzZ-98">
          <mxGeometry relative="1" as="geometry" />
        </mxCell>
        <mxCell id="SJo5ltNFuGh-xrkQavzZ-101" value="Personagem" style="swimlane;fontStyle=0;childLayout=stackLayout;horizontal=1;startSize=26;fillColor=none;horizontalStack=0;resizeParent=1;resizeParentMax=0;resizeLast=0;collapsible=1;marginBottom=0;fillStyle=solid;movable=1;resizable=1;rotatable=1;deletable=1;editable=1;connectable=1;" vertex="1" parent="SJo5ltNFuGh-xrkQavzZ-158">
          <mxGeometry x="40" y="95" width="120" height="156" as="geometry" />
        </mxCell>
        <mxCell id="SJo5ltNFuGh-xrkQavzZ-102" value="Cor" style="text;strokeColor=none;fillColor=none;align=left;verticalAlign=top;spacingLeft=4;spacingRight=4;overflow=hidden;rotatable=1;points=[[0,0.5],[1,0.5]];portConstraint=eastwest;movable=1;resizable=1;deletable=1;editable=1;connectable=1;" vertex="1" parent="SJo5ltNFuGh-xrkQavzZ-101">
          <mxGeometry y="26" width="120" height="26" as="geometry" />
        </mxCell>
        <mxCell id="SJo5ltNFuGh-xrkQavzZ-103" value="Sexo" style="text;strokeColor=none;fillColor=none;align=left;verticalAlign=top;spacingLeft=4;spacingRight=4;overflow=hidden;rotatable=1;points=[[0,0.5],[1,0.5]];portConstraint=eastwest;movable=1;resizable=1;deletable=1;editable=1;connectable=1;" vertex="1" parent="SJo5ltNFuGh-xrkQavzZ-101">
          <mxGeometry y="52" width="120" height="26" as="geometry" />
        </mxCell>
        <mxCell id="SJo5ltNFuGh-xrkQavzZ-104" value="Cabelo" style="text;strokeColor=none;fillColor=none;align=left;verticalAlign=top;spacingLeft=4;spacingRight=4;overflow=hidden;rotatable=1;points=[[0,0.5],[1,0.5]];portConstraint=eastwest;movable=1;resizable=1;deletable=1;editable=1;connectable=1;" vertex="1" parent="SJo5ltNFuGh-xrkQavzZ-101">
          <mxGeometry y="78" width="120" height="26" as="geometry" />
        </mxCell>
        <mxCell id="SJo5ltNFuGh-xrkQavzZ-112" value="Olhos" style="text;strokeColor=none;fillColor=none;align=left;verticalAlign=top;spacingLeft=4;spacingRight=4;overflow=hidden;rotatable=1;points=[[0,0.5],[1,0.5]];portConstraint=eastwest;movable=1;resizable=1;deletable=1;editable=1;connectable=1;" vertex="1" parent="SJo5ltNFuGh-xrkQavzZ-101">
          <mxGeometry y="104" width="120" height="26" as="geometry" />
        </mxCell>
        <mxCell id="SJo5ltNFuGh-xrkQavzZ-106" value="Pular intro" style="text;strokeColor=none;fillColor=none;align=left;verticalAlign=top;spacingLeft=4;spacingRight=4;overflow=hidden;rotatable=1;points=[[0,0.5],[1,0.5]];portConstraint=eastwest;movable=1;resizable=1;deletable=1;editable=1;connectable=1;" vertex="1" parent="SJo5ltNFuGh-xrkQavzZ-101">
          <mxGeometry y="130" width="120" height="26" as="geometry" />
        </mxCell>
        <mxCell id="SJo5ltNFuGh-xrkQavzZ-107" style="edgeStyle=orthogonalEdgeStyle;rounded=0;orthogonalLoop=1;jettySize=auto;html=1;exitX=1;exitY=0.5;exitDx=0;exitDy=0;entryX=0;entryY=0.5;entryDx=0;entryDy=0;dashed=1;movable=1;resizable=1;rotatable=1;deletable=1;editable=1;connectable=1;" edge="1" parent="SJo5ltNFuGh-xrkQavzZ-158" source="SJo5ltNFuGh-xrkQavzZ-103" target="SJo5ltNFuGh-xrkQavzZ-96">
          <mxGeometry relative="1" as="geometry" />
        </mxCell>
        <mxCell id="SJo5ltNFuGh-xrkQavzZ-114" value="Procurar Save" style="rounded=1;whiteSpace=wrap;html=1;fontSize=12;glass=0;strokeWidth=1;shadow=0;movable=1;resizable=1;rotatable=1;deletable=1;editable=1;connectable=1;" vertex="1" parent="SJo5ltNFuGh-xrkQavzZ-158">
          <mxGeometry x="360" y="120" width="120" height="80" as="geometry" />
        </mxCell>
        <mxCell id="SJo5ltNFuGh-xrkQavzZ-115" style="edgeStyle=orthogonalEdgeStyle;rounded=0;orthogonalLoop=1;jettySize=auto;html=1;entryX=0.5;entryY=0;entryDx=0;entryDy=0;movable=1;resizable=1;rotatable=1;deletable=1;editable=1;connectable=1;" edge="1" parent="SJo5ltNFuGh-xrkQavzZ-158" source="SJo5ltNFuGh-xrkQavzZ-94" target="SJo5ltNFuGh-xrkQavzZ-114">
          <mxGeometry relative="1" as="geometry" />
        </mxCell>
        <mxCell id="SJo5ltNFuGh-xrkQavzZ-116" value="Carregar Save" style="rounded=1;whiteSpace=wrap;html=1;fontSize=12;glass=0;strokeWidth=1;shadow=0;movable=1;resizable=1;rotatable=1;deletable=1;editable=1;connectable=1;" vertex="1" parent="SJo5ltNFuGh-xrkQavzZ-158">
          <mxGeometry x="360" y="240" width="120" height="80" as="geometry" />
        </mxCell>
        <mxCell id="SJo5ltNFuGh-xrkQavzZ-117" style="edgeStyle=orthogonalEdgeStyle;rounded=0;orthogonalLoop=1;jettySize=auto;html=1;entryX=0.5;entryY=0;entryDx=0;entryDy=0;movable=1;resizable=1;rotatable=1;deletable=1;editable=1;connectable=1;" edge="1" parent="SJo5ltNFuGh-xrkQavzZ-158" source="SJo5ltNFuGh-xrkQavzZ-114" target="SJo5ltNFuGh-xrkQavzZ-116">
          <mxGeometry relative="1" as="geometry" />
        </mxCell>
        <mxCell id="SJo5ltNFuGh-xrkQavzZ-119" value="Configurações" style="rounded=1;whiteSpace=wrap;html=1;fontSize=12;glass=0;strokeWidth=1;shadow=0;movable=1;resizable=1;rotatable=1;deletable=1;editable=1;connectable=1;" vertex="1" parent="SJo5ltNFuGh-xrkQavzZ-158">
          <mxGeometry x="520" y="120" width="120" height="80" as="geometry" />
        </mxCell>
        <mxCell id="SJo5ltNFuGh-xrkQavzZ-120" style="edgeStyle=orthogonalEdgeStyle;rounded=0;orthogonalLoop=1;jettySize=auto;html=1;entryX=0.5;entryY=0;entryDx=0;entryDy=0;movable=1;resizable=1;rotatable=1;deletable=1;editable=1;connectable=1;" edge="1" parent="SJo5ltNFuGh-xrkQavzZ-158" source="SJo5ltNFuGh-xrkQavzZ-95" target="SJo5ltNFuGh-xrkQavzZ-119">
          <mxGeometry relative="1" as="geometry" />
        </mxCell>
        <mxCell id="SJo5ltNFuGh-xrkQavzZ-155" value="&lt;b&gt;MAIN SCREEN&lt;/b&gt;" style="verticalAlign=top;align=left;spacingTop=8;spacingLeft=2;spacingRight=12;shape=cube;size=10;direction=south;fontStyle=4;html=1;pointerEvents=0;fontFamily=Helvetica;fontSize=12;fontColor=rgb(240, 240, 240);fillColor=none;gradientColor=none;" vertex="1" parent="SJo5ltNFuGh-xrkQavzZ-158">
          <mxGeometry width="690" height="360" as="geometry" />
        </mxCell>
        <mxCell id="SJo5ltNFuGh-xrkQavzZ-181" value="" style="group" vertex="1" connectable="0" parent="WIyWlLk6GJQsqaUBKTNV-1">
          <mxGeometry x="40" y="550" width="610" height="520" as="geometry" />
        </mxCell>
        <mxCell id="SJo5ltNFuGh-xrkQavzZ-180" value="&lt;b&gt;INTRO&lt;/b&gt;" style="verticalAlign=top;align=left;spacingTop=8;spacingLeft=2;spacingRight=12;shape=cube;size=10;direction=south;fontStyle=4;html=1;pointerEvents=0;fontFamily=Helvetica;fontSize=12;fontColor=rgb(240, 240, 240);fillColor=none;gradientColor=none;container=0;" vertex="1" parent="SJo5ltNFuGh-xrkQavzZ-181">
          <mxGeometry width="610" height="520" as="geometry" />
        </mxCell>
        <mxCell id="SJo5ltNFuGh-xrkQavzZ-45" value="&amp;lt;player&amp;gt; sonha em se tornar um cientista de sucesso" style="rounded=1;whiteSpace=wrap;html=1;fontSize=12;glass=0;strokeWidth=1;shadow=0;" vertex="1" parent="SJo5ltNFuGh-xrkQavzZ-181">
          <mxGeometry x="40" y="50" width="120" height="80" as="geometry" />
        </mxCell>
        <mxCell id="SJo5ltNFuGh-xrkQavzZ-46" value="Trabalha muito pra ser reconhecido mas não consegue" style="rounded=1;whiteSpace=wrap;html=1;fontSize=12;glass=0;strokeWidth=1;shadow=0;" vertex="1" parent="SJo5ltNFuGh-xrkQavzZ-181">
          <mxGeometry x="40" y="290" width="120" height="80" as="geometry" />
        </mxCell>
        <mxCell id="SJo5ltNFuGh-xrkQavzZ-47" value="É chamado para ser assistente de um cientista famoso" style="rounded=1;whiteSpace=wrap;html=1;fontSize=12;glass=0;strokeWidth=1;shadow=0;" vertex="1" parent="SJo5ltNFuGh-xrkQavzZ-181">
          <mxGeometry x="40" y="410" width="120" height="80" as="geometry" />
        </mxCell>
        <mxCell id="SJo5ltNFuGh-xrkQavzZ-48" style="edgeStyle=orthogonalEdgeStyle;rounded=0;orthogonalLoop=1;jettySize=auto;html=1;entryX=0.5;entryY=0;entryDx=0;entryDy=0;" edge="1" parent="SJo5ltNFuGh-xrkQavzZ-181" source="SJo5ltNFuGh-xrkQavzZ-46" target="SJo5ltNFuGh-xrkQavzZ-47">
          <mxGeometry relative="1" as="geometry" />
        </mxCell>
        <mxCell id="SJo5ltNFuGh-xrkQavzZ-49" value="O cientista é arrogante e subestima o &amp;lt;player&amp;gt;" style="rounded=1;whiteSpace=wrap;html=1;fontSize=12;glass=0;strokeWidth=1;shadow=0;" vertex="1" parent="SJo5ltNFuGh-xrkQavzZ-181">
          <mxGeometry x="240" y="50" width="120" height="80" as="geometry" />
        </mxCell>
        <mxCell id="SJo5ltNFuGh-xrkQavzZ-50" style="edgeStyle=orthogonalEdgeStyle;rounded=0;orthogonalLoop=1;jettySize=auto;html=1;entryX=0;entryY=0.5;entryDx=0;entryDy=0;" edge="1" parent="SJo5ltNFuGh-xrkQavzZ-181" source="SJo5ltNFuGh-xrkQavzZ-47" target="SJo5ltNFuGh-xrkQavzZ-49">
          <mxGeometry relative="1" as="geometry" />
        </mxCell>
        <mxCell id="SJo5ltNFuGh-xrkQavzZ-51" value="Trabalham juntos em um projeto de teletransportadores" style="rounded=1;whiteSpace=wrap;html=1;fontSize=12;glass=0;strokeWidth=1;shadow=0;" vertex="1" parent="SJo5ltNFuGh-xrkQavzZ-181">
          <mxGeometry x="240" y="170" width="120" height="80" as="geometry" />
        </mxCell>
        <mxCell id="SJo5ltNFuGh-xrkQavzZ-52" style="edgeStyle=orthogonalEdgeStyle;rounded=0;orthogonalLoop=1;jettySize=auto;html=1;entryX=0.5;entryY=0;entryDx=0;entryDy=0;" edge="1" parent="SJo5ltNFuGh-xrkQavzZ-181" source="SJo5ltNFuGh-xrkQavzZ-49" target="SJo5ltNFuGh-xrkQavzZ-51">
          <mxGeometry relative="1" as="geometry" />
        </mxCell>
        <mxCell id="SJo5ltNFuGh-xrkQavzZ-53" value="Ocorre um acidente no projeto" style="rounded=1;whiteSpace=wrap;html=1;fontSize=12;glass=0;strokeWidth=1;shadow=0;" vertex="1" parent="SJo5ltNFuGh-xrkQavzZ-181">
          <mxGeometry x="240" y="290" width="120" height="80" as="geometry" />
        </mxCell>
        <mxCell id="SJo5ltNFuGh-xrkQavzZ-54" style="edgeStyle=orthogonalEdgeStyle;rounded=0;orthogonalLoop=1;jettySize=auto;html=1;entryX=0.5;entryY=0;entryDx=0;entryDy=0;" edge="1" parent="SJo5ltNFuGh-xrkQavzZ-181" source="SJo5ltNFuGh-xrkQavzZ-51" target="SJo5ltNFuGh-xrkQavzZ-53">
          <mxGeometry relative="1" as="geometry" />
        </mxCell>
        <mxCell id="SJo5ltNFuGh-xrkQavzZ-55" value="Um vortex puxa os dois para outra dimensão" style="rounded=1;whiteSpace=wrap;html=1;fontSize=12;glass=0;strokeWidth=1;shadow=0;" vertex="1" parent="SJo5ltNFuGh-xrkQavzZ-181">
          <mxGeometry x="240" y="410" width="120" height="80" as="geometry" />
        </mxCell>
        <mxCell id="SJo5ltNFuGh-xrkQavzZ-56" style="edgeStyle=orthogonalEdgeStyle;rounded=0;orthogonalLoop=1;jettySize=auto;html=1;entryX=0.5;entryY=0;entryDx=0;entryDy=0;" edge="1" parent="SJo5ltNFuGh-xrkQavzZ-181" source="SJo5ltNFuGh-xrkQavzZ-53" target="SJo5ltNFuGh-xrkQavzZ-55">
          <mxGeometry relative="1" as="geometry" />
        </mxCell>
        <mxCell id="SJo5ltNFuGh-xrkQavzZ-57" value="Ambos ficam presos, perdidos e sem nada em uma praia" style="rounded=1;whiteSpace=wrap;html=1;fontSize=12;glass=0;strokeWidth=1;shadow=0;" vertex="1" parent="SJo5ltNFuGh-xrkQavzZ-181">
          <mxGeometry x="440" y="50" width="120" height="80" as="geometry" />
        </mxCell>
        <mxCell id="SJo5ltNFuGh-xrkQavzZ-58" style="edgeStyle=orthogonalEdgeStyle;rounded=0;orthogonalLoop=1;jettySize=auto;html=1;entryX=0;entryY=0.5;entryDx=0;entryDy=0;" edge="1" parent="SJo5ltNFuGh-xrkQavzZ-181" source="SJo5ltNFuGh-xrkQavzZ-55" target="SJo5ltNFuGh-xrkQavzZ-57">
          <mxGeometry relative="1" as="geometry" />
        </mxCell>
        <mxCell id="SJo5ltNFuGh-xrkQavzZ-59" value="Cientista culpa o estagiário" style="rounded=1;whiteSpace=wrap;html=1;fontSize=12;glass=0;strokeWidth=1;shadow=0;" vertex="1" parent="SJo5ltNFuGh-xrkQavzZ-181">
          <mxGeometry x="440" y="170" width="120" height="80" as="geometry" />
        </mxCell>
        <mxCell id="SJo5ltNFuGh-xrkQavzZ-60" style="edgeStyle=orthogonalEdgeStyle;rounded=0;orthogonalLoop=1;jettySize=auto;html=1;entryX=0.5;entryY=0;entryDx=0;entryDy=0;" edge="1" parent="SJo5ltNFuGh-xrkQavzZ-181" source="SJo5ltNFuGh-xrkQavzZ-57" target="SJo5ltNFuGh-xrkQavzZ-59">
          <mxGeometry relative="1" as="geometry" />
        </mxCell>
        <mxCell id="SJo5ltNFuGh-xrkQavzZ-61" style="edgeStyle=orthogonalEdgeStyle;rounded=0;orthogonalLoop=1;jettySize=auto;html=1;entryX=0.5;entryY=0;entryDx=0;entryDy=0;" edge="1" parent="SJo5ltNFuGh-xrkQavzZ-181" source="SJo5ltNFuGh-xrkQavzZ-62" target="SJo5ltNFuGh-xrkQavzZ-46">
          <mxGeometry relative="1" as="geometry" />
        </mxCell>
        <mxCell id="SJo5ltNFuGh-xrkQavzZ-62" value="Leva uma vida difícil" style="rounded=1;whiteSpace=wrap;html=1;fontSize=12;glass=0;strokeWidth=1;shadow=0;" vertex="1" parent="SJo5ltNFuGh-xrkQavzZ-181">
          <mxGeometry x="40" y="170" width="120" height="80" as="geometry" />
        </mxCell>
        <mxCell id="SJo5ltNFuGh-xrkQavzZ-63" style="edgeStyle=orthogonalEdgeStyle;rounded=0;orthogonalLoop=1;jettySize=auto;html=1;entryX=0.5;entryY=0;entryDx=0;entryDy=0;" edge="1" parent="SJo5ltNFuGh-xrkQavzZ-181" source="SJo5ltNFuGh-xrkQavzZ-45" target="SJo5ltNFuGh-xrkQavzZ-62">
          <mxGeometry relative="1" as="geometry" />
        </mxCell>
        <mxCell id="SJo5ltNFuGh-xrkQavzZ-208" style="edgeStyle=orthogonalEdgeStyle;rounded=0;orthogonalLoop=1;jettySize=auto;html=1;entryX=0;entryY=0;entryDx=0;entryDy=300;entryPerimeter=0;fontFamily=Helvetica;fontSize=12;fontColor=rgb(240, 240, 240);" edge="1" parent="WIyWlLk6GJQsqaUBKTNV-1" source="SJo5ltNFuGh-xrkQavzZ-98" target="SJo5ltNFuGh-xrkQavzZ-180">
          <mxGeometry relative="1" as="geometry">
            <Array as="points">
              <mxPoint x="300" y="460" />
              <mxPoint x="350" y="460" />
            </Array>
          </mxGeometry>
        </mxCell>
        <mxCell id="SJo5ltNFuGh-xrkQavzZ-210" value="NÃO" style="edgeLabel;html=1;align=center;verticalAlign=middle;resizable=0;points=[];fontSize=12;fontFamily=Helvetica;fontColor=rgb(240, 240, 240);" vertex="1" connectable="0" parent="WIyWlLk6GJQsqaUBKTNV-1">
          <mxGeometry x="350.00347826086954" y="500.0034782608697" as="geometry" />
        </mxCell>
        <mxCell id="SJo5ltNFuGh-xrkQavzZ-185" value="&lt;b&gt;GAMEPLAY&lt;/b&gt;" style="verticalAlign=top;align=left;spacingTop=8;spacingLeft=2;spacingRight=12;shape=cube;size=10;direction=south;fontStyle=4;html=1;pointerEvents=0;fontFamily=Helvetica;fontSize=12;fontColor=rgb(240, 240, 240);fillColor=none;gradientColor=none;container=0;movable=1;resizable=1;rotatable=1;deletable=1;editable=1;connectable=1;" vertex="1" parent="WIyWlLk6GJQsqaUBKTNV-1">
          <mxGeometry x="720" y="550" width="920" height="520" as="geometry" />
        </mxCell>
        <mxCell id="SJo5ltNFuGh-xrkQavzZ-215" style="edgeStyle=orthogonalEdgeStyle;rounded=0;orthogonalLoop=1;jettySize=auto;html=1;entryX=0.5;entryY=0;entryDx=0;entryDy=0;fontFamily=Helvetica;fontSize=12;fontColor=rgb(240, 240, 240);dashed=1;" edge="1" parent="WIyWlLk6GJQsqaUBKTNV-1" source="SJo5ltNFuGh-xrkQavzZ-213" target="SJo5ltNFuGh-xrkQavzZ-214">
          <mxGeometry relative="1" as="geometry" />
        </mxCell>
        <mxCell id="SJo5ltNFuGh-xrkQavzZ-217" style="edgeStyle=orthogonalEdgeStyle;rounded=0;orthogonalLoop=1;jettySize=auto;html=1;entryX=0;entryY=0.5;entryDx=0;entryDy=0;fontFamily=Helvetica;fontSize=12;fontColor=rgb(240, 240, 240);" edge="1" parent="WIyWlLk6GJQsqaUBKTNV-1" source="SJo5ltNFuGh-xrkQavzZ-213" target="SJo5ltNFuGh-xrkQavzZ-216">
          <mxGeometry relative="1" as="geometry" />
        </mxCell>
        <mxCell id="SJo5ltNFuGh-xrkQavzZ-213" value="Controles aparecem na tela" style="rounded=1;whiteSpace=wrap;html=1;fontSize=12;glass=0;strokeWidth=1;shadow=0;" vertex="1" parent="WIyWlLk6GJQsqaUBKTNV-1">
          <mxGeometry x="760" y="600" width="120" height="80" as="geometry" />
        </mxCell>
        <mxCell id="SJo5ltNFuGh-xrkQavzZ-214" value="&amp;lt;player&amp;gt; pode coletar recursos e explorar a praia" style="rounded=1;whiteSpace=wrap;html=1;fontSize=12;glass=0;strokeWidth=1;shadow=0;" vertex="1" parent="WIyWlLk6GJQsqaUBKTNV-1">
          <mxGeometry x="760" y="720" width="120" height="80" as="geometry" />
        </mxCell>
        <mxCell id="SJo5ltNFuGh-xrkQavzZ-265" style="edgeStyle=orthogonalEdgeStyle;rounded=0;orthogonalLoop=1;jettySize=auto;html=1;entryX=0.5;entryY=0;entryDx=0;entryDy=0;fontFamily=Helvetica;fontSize=12;fontColor=rgb(240, 240, 240);endArrow=classic;endFill=1;" edge="1" parent="WIyWlLk6GJQsqaUBKTNV-1" source="SJo5ltNFuGh-xrkQavzZ-216" target="SJo5ltNFuGh-xrkQavzZ-264">
          <mxGeometry relative="1" as="geometry" />
        </mxCell>
        <mxCell id="SJo5ltNFuGh-xrkQavzZ-216" value="&amp;lt;quest&amp;gt; adicionada" style="rounded=1;whiteSpace=wrap;html=1;fontSize=12;glass=0;strokeWidth=1;shadow=0;" vertex="1" parent="WIyWlLk6GJQsqaUBKTNV-1">
          <mxGeometry x="920" y="600" width="120" height="80" as="geometry" />
        </mxCell>
        <mxCell id="SJo5ltNFuGh-xrkQavzZ-229" style="edgeStyle=orthogonalEdgeStyle;rounded=0;orthogonalLoop=1;jettySize=auto;html=1;exitX=0;exitY=0.5;exitDx=0;exitDy=0;entryX=1;entryY=0.5;entryDx=0;entryDy=0;fontFamily=Helvetica;fontSize=12;fontColor=rgb(240, 240, 240);dashed=1;" edge="1" parent="WIyWlLk6GJQsqaUBKTNV-1" source="SJo5ltNFuGh-xrkQavzZ-228" target="SJo5ltNFuGh-xrkQavzZ-216">
          <mxGeometry relative="1" as="geometry" />
        </mxCell>
        <mxCell id="SJo5ltNFuGh-xrkQavzZ-228" value="PERDIDO" style="fontStyle=1;pointerEvents=0;fontFamily=Helvetica;fontSize=12;fontColor=rgb(240, 240, 240);fillColor=none;gradientColor=none;" vertex="1" parent="WIyWlLk6GJQsqaUBKTNV-1">
          <mxGeometry x="1080" y="625" width="120" height="30" as="geometry" />
        </mxCell>
        <mxCell id="SJo5ltNFuGh-xrkQavzZ-259" style="edgeStyle=orthogonalEdgeStyle;rounded=0;orthogonalLoop=1;jettySize=auto;html=1;entryX=0;entryY=0;entryDx=0;entryDy=455;entryPerimeter=0;fontFamily=Helvetica;fontSize=12;fontColor=rgb(240, 240, 240);endArrow=classic;endFill=1;" edge="1" parent="WIyWlLk6GJQsqaUBKTNV-1" source="SJo5ltNFuGh-xrkQavzZ-98" target="SJo5ltNFuGh-xrkQavzZ-185">
          <mxGeometry relative="1" as="geometry">
            <Array as="points">
              <mxPoint x="300" y="460" />
              <mxPoint x="1185" y="460" />
            </Array>
          </mxGeometry>
        </mxCell>
        <mxCell id="SJo5ltNFuGh-xrkQavzZ-260" value="&lt;QUEST&gt; PERDIDO" style="swimlane;pointerEvents=0;fontFamily=Helvetica;fontSize=12;fontColor=rgb(240, 240, 240);fillColor=none;gradientColor=none;" vertex="1" parent="WIyWlLk6GJQsqaUBKTNV-1">
          <mxGeometry x="800" y="40" width="200" height="160" as="geometry">
            <mxRectangle x="800" y="240" width="160" height="30" as="alternateBounds" />
          </mxGeometry>
        </mxCell>
        <mxCell id="SJo5ltNFuGh-xrkQavzZ-241" value="&amp;lt;player&amp;gt; precisa encontrar uma fonte de alimento" style="rounded=1;whiteSpace=wrap;html=1;fontSize=12;glass=0;strokeWidth=1;shadow=0;" vertex="1" parent="SJo5ltNFuGh-xrkQavzZ-260">
          <mxGeometry x="40" y="41" width="120" height="80" as="geometry" />
        </mxCell>
        <mxCell id="SJo5ltNFuGh-xrkQavzZ-269" style="edgeStyle=orthogonalEdgeStyle;rounded=0;orthogonalLoop=1;jettySize=auto;html=1;entryX=0;entryY=0.5;entryDx=0;entryDy=0;fontFamily=Helvetica;fontSize=12;fontColor=rgb(240, 240, 240);endArrow=none;endFill=0;" edge="1" parent="WIyWlLk6GJQsqaUBKTNV-1" source="SJo5ltNFuGh-xrkQavzZ-262" target="SJo5ltNFuGh-xrkQavzZ-268">
          <mxGeometry relative="1" as="geometry" />
        </mxCell>
        <mxCell id="SJo5ltNFuGh-xrkQavzZ-262" value="Jungle desbloqueada" style="shape=ext;margin=3;double=1;whiteSpace=wrap;html=1;align=center;pointerEvents=0;fontFamily=Helvetica;fontSize=12;fontColor=rgb(240, 240, 240);fillColor=none;gradientColor=none;" vertex="1" parent="WIyWlLk6GJQsqaUBKTNV-1">
          <mxGeometry x="1080" y="740" width="120" height="40" as="geometry" />
        </mxCell>
        <mxCell id="SJo5ltNFuGh-xrkQavzZ-267" style="edgeStyle=orthogonalEdgeStyle;rounded=0;orthogonalLoop=1;jettySize=auto;html=1;entryX=0;entryY=0.5;entryDx=0;entryDy=0;fontFamily=Helvetica;fontSize=12;fontColor=rgb(240, 240, 240);endArrow=none;endFill=0;" edge="1" parent="WIyWlLk6GJQsqaUBKTNV-1" source="SJo5ltNFuGh-xrkQavzZ-264" target="SJo5ltNFuGh-xrkQavzZ-262">
          <mxGeometry relative="1" as="geometry" />
        </mxCell>
        <mxCell id="SJo5ltNFuGh-xrkQavzZ-264" value="&amp;lt;player&amp;gt; pode coletar recursos e explorar a praia" style="rounded=1;whiteSpace=wrap;html=1;fontSize=12;glass=0;strokeWidth=1;shadow=0;" vertex="1" parent="WIyWlLk6GJQsqaUBKTNV-1">
          <mxGeometry x="920" y="720" width="120" height="80" as="geometry" />
        </mxCell>
        <mxCell id="SJo5ltNFuGh-xrkQavzZ-268" value="&amp;lt;player&amp;gt; pode encontrar cabana na Jungle" style="rounded=1;whiteSpace=wrap;html=1;fontSize=12;glass=0;strokeWidth=1;shadow=0;" vertex="1" parent="WIyWlLk6GJQsqaUBKTNV-1">
          <mxGeometry x="1240" y="720" width="120" height="80" as="geometry" />
        </mxCell>
        <mxCell id="SJo5ltNFuGh-xrkQavzZ-271" style="edgeStyle=orthogonalEdgeStyle;rounded=0;orthogonalLoop=1;jettySize=auto;html=1;entryX=0.5;entryY=0;entryDx=0;entryDy=0;fontFamily=Helvetica;fontSize=12;fontColor=rgb(240, 240, 240);endArrow=classic;endFill=1;dashed=1;" edge="1" parent="WIyWlLk6GJQsqaUBKTNV-1" source="SJo5ltNFuGh-xrkQavzZ-270" target="SJo5ltNFuGh-xrkQavzZ-268">
          <mxGeometry relative="1" as="geometry" />
        </mxCell>
        <mxCell id="SJo5ltNFuGh-xrkQavzZ-270" value="SOBREVIVENTES?" style="fontStyle=1;pointerEvents=0;fontFamily=Helvetica;fontSize=12;fontColor=rgb(240, 240, 240);fillColor=none;gradientColor=none;" vertex="1" parent="WIyWlLk6GJQsqaUBKTNV-1">
          <mxGeometry x="1240" y="625" width="120" height="30" as="geometry" />
        </mxCell>
        <mxCell id="SJo5ltNFuGh-xrkQavzZ-272" value="&lt;QUEST&gt; TEM ALGUÉM AÍ?" style="swimlane;pointerEvents=0;fontFamily=Helvetica;fontSize=12;fontColor=rgb(240, 240, 240);fillColor=none;gradientColor=none;" vertex="1" parent="WIyWlLk6GJQsqaUBKTNV-1">
          <mxGeometry x="1040" y="40" width="280" height="240" as="geometry">
            <mxRectangle x="800" y="240" width="160" height="30" as="alternateBounds" />
          </mxGeometry>
        </mxCell>
        <mxCell id="SJo5ltNFuGh-xrkQavzZ-273" value="Investigue a cabana misteriosa" style="rounded=1;whiteSpace=wrap;html=1;fontSize=12;glass=0;strokeWidth=1;shadow=0;" vertex="1" parent="SJo5ltNFuGh-xrkQavzZ-272">
          <mxGeometry x="40" y="41" width="120" height="80" as="geometry" />
        </mxCell>
        <mxCell id="SJo5ltNFuGh-xrkQavzZ-274" value="&amp;lt;player&amp;gt; pode encontrar cabana na Jungle" style="rounded=1;whiteSpace=wrap;html=1;fontSize=12;glass=0;strokeWidth=1;shadow=0;" vertex="1" parent="WIyWlLk6GJQsqaUBKTNV-1">
          <mxGeometry x="1400" y="720" width="120" height="80" as="geometry" />
        </mxCell>
      </root>
    </mxGraphModel>
  </diagram>
</mxfile>
